<svg width="213" height="40" viewBox="0 0 213 40" fill="none" xmlns="http://www.w3.org/2000/svg">
<path d="M118.15 0.120117C122.52 0.120117 125.94 1.39012 128.41 3.93012C130.88 6.47012 132.11 10.0401 132.11 14.6401V37.2601H119.41V17.6501C119.41 13.8801 117.94 12.0001 115.01 12.0001C111.89 12.0001 110.33 13.9101 110.33 17.7201V37.2601H97.6296V17.6501C97.6296 13.8801 96.1396 12.0001 93.1596 12.0001C90.1796 12.0001 88.5496 13.9101 88.5496 17.7201V37.2601H75.8496V0.890117H87.8596V3.40012C89.6296 1.21012 92.4696 0.120117 96.3796 0.120117C101.4 0.120117 105.15 1.77012 107.62 5.08012C110.09 1.78012 113.6 0.120117 118.16 0.120117" fill="#D7DB31"/>
<path d="M153.77 11.0101C151.68 11.0101 150.01 11.7301 148.78 13.1701C147.55 14.6101 146.93 16.5901 146.93 19.1001C146.93 21.6101 147.55 23.5801 148.78 25.0001C150.01 26.4201 151.68 27.1301 153.77 27.1301C155.86 27.1301 157.6 26.4201 158.83 25.0001C160.06 23.5801 160.68 21.6101 160.68 19.1001C160.68 16.5901 160.06 14.6101 158.83 13.1701C157.6 11.7301 155.91 11.0101 153.77 11.0101ZM153.77 0.120117C159.59 0.120117 164.33 1.89012 168.01 5.43012C171.68 8.92012 173.52 13.4801 173.52 19.1101C173.52 24.7401 171.68 29.3001 168.01 32.7901C164.33 36.2801 159.59 38.0201 153.77 38.0201C147.95 38.0201 143.32 36.2801 139.6 32.7901C135.92 29.3001 134.09 24.7401 134.09 19.1101C134.09 13.4801 135.93 8.92012 139.6 5.43012C143.27 1.89012 148 0.120117 153.77 0.120117Z" fill="#D7DB31"/>
<path d="M194.62 0.120352C199.18 0.120352 203.09 1.40035 206.35 3.96035C209.56 6.52035 211.56 10.0104 212.35 14.4304L199.86 15.5504C199.67 14.1504 199.12 13.0504 198.19 12.2304C197.26 11.4204 196.07 11.0104 194.63 11.0104C192.72 11.0104 191.2 11.7304 190.06 13.1704C188.92 14.6104 188.35 16.5904 188.35 19.1004C188.35 21.6104 188.92 23.5804 190.06 25.0004C191.2 26.4204 192.72 27.1304 194.63 27.1304C196.07 27.1304 197.26 26.7204 198.19 25.9104C199.12 25.1004 199.68 23.9904 199.86 22.5904L212.28 23.6404C211.58 28.1103 209.6 31.6204 206.35 34.1804C203.09 36.7404 199.18 38.0204 194.62 38.0204C188.94 38.0204 184.34 36.3204 180.8 32.9204C177.26 29.5204 175.5 24.9204 175.5 19.1004C175.5 13.2804 177.27 8.61035 180.8 5.21035C184.33 1.81035 188.94 0.110352 194.62 0.110352" fill="#D7DB31"/>
<path d="M12.7695 5.63L13.7695 5.33C13.9595 6.12 14.5895 6.59 15.5495 6.59C16.5095 6.59 17.1295 6.08 17.1295 5.43C17.1295 4.78 16.6895 4.46 16.0195 4.3L14.9295 4.04C13.9695 3.82 13.0795 3.28 13.0795 2.02C13.0795 0.91 14.0095 0 15.5495 0C16.8995 0 17.8395 0.68 18.0695 1.76L17.0895 2.05C16.9395 1.43 16.3895 0.97 15.5495 0.97C14.5995 0.97 14.1495 1.48 14.1495 2.02C14.1495 2.64 14.6295 2.9 15.1995 3.02L16.2895 3.29C17.4095 3.56 18.2395 4.22 18.2395 5.43C18.2395 6.64 17.2695 7.6 15.5595 7.6C14.1295 7.6 13.0795 6.89 12.7795 5.64" fill="#E0E8DE"/>
<path d="M20.0198 1.63988V1.53988H19.5198V0.129883H20.8198V1.64988C20.8198 2.37988 20.4298 3.04988 19.5798 3.27988L19.3398 2.61988C19.8198 2.47988 20.0198 2.15988 20.0198 1.64988" fill="#E0E8DE"/>
<path d="M23.4196 6.72043C24.5296 6.72043 24.9696 5.91043 24.9696 5.15043V4.86043L23.3696 5.03043C22.7296 5.10043 22.4096 5.40043 22.4096 5.89043C22.4096 6.38043 22.8496 6.73043 23.4196 6.73043M21.3596 5.88043C21.3596 4.88043 22.0996 4.29043 23.1396 4.19043L24.9696 4.00043C24.9596 3.36043 24.4996 2.86043 23.6896 2.86043C22.9496 2.86043 22.5896 3.33043 22.4996 3.76043L21.5696 3.49043C21.8096 2.55043 22.5796 1.94043 23.6896 1.94043C25.2596 1.94043 25.9896 2.99043 25.9896 4.06043V7.45043H24.9496V5.80043C24.9496 6.94043 24.2196 7.59043 23.1896 7.59043C22.1096 7.59043 21.3496 6.89043 21.3496 5.88043" fill="#E0E8DE"/>
<path d="M28.4289 0.129883H27.3789V7.45988H28.4289V0.129883Z" fill="#E9EFE8"/>
<path d="M30.8508 0.129883H29.8008V7.45988H30.8508V0.129883Z" fill="#E9EFE8"/>
<path d="M32.2605 2.07027H33.3105V7.45027H32.2605V2.07027ZM32.2305 0.0302734H33.3205V1.26027H32.2305V0.0302734Z" fill="#E9EFE8"/>
<path d="M38.6511 4.26043C38.6411 3.50043 37.9911 2.85043 37.0911 2.85043C36.1911 2.85043 35.5911 3.45043 35.4411 4.26043H38.6511ZM34.3811 4.73043C34.3811 3.06043 35.5711 1.94043 37.1011 1.94043C38.7311 1.94043 39.6611 3.18043 39.6611 4.61043C39.6611 4.82043 39.6511 5.02043 39.6311 5.14043H35.4211C35.5611 6.08043 36.2111 6.67043 37.1011 6.67043C37.7711 6.67043 38.3311 6.37043 38.6411 5.88043L39.4111 6.38043C38.9911 7.09043 38.1711 7.59043 37.0811 7.59043C35.4911 7.59043 34.3711 6.43043 34.3711 4.73043" fill="#E9EFE8"/>
<path d="M40.8105 2.07051H41.8505V4.21051C41.8705 2.84051 42.6505 2.02051 43.8205 2.02051V3.14051H43.4605C42.3705 3.14051 41.8605 3.88051 41.8605 4.75051V7.45051H40.8105V2.07051Z" fill="#E9EFE8"/>
<path d="M48.5312 4.76043C48.5312 5.95043 49.3113 6.63043 50.2513 6.63043C51.1913 6.63043 51.9513 5.88043 51.9513 4.76043C51.9513 3.64043 51.2113 2.89043 50.2313 2.89043C49.2513 2.89043 48.5312 3.72043 48.5312 4.76043ZM47.5312 2.07043H48.5813V4.02043C48.7313 2.83043 49.4213 1.94043 50.6613 1.94043C52.0113 1.94043 53.0112 3.15043 53.0112 4.77043C53.0112 6.39043 52.0313 7.60043 50.6613 7.60043C49.5813 7.60043 48.7213 6.85043 48.5813 5.61043V9.66043H47.5312V2.07043Z" fill="#E9EFE8"/>
<path d="M56.5605 6.64066C57.5705 6.64066 58.3305 5.89066 58.3305 4.77066C58.3305 3.65066 57.5805 2.90066 56.5605 2.90066C55.5405 2.90066 54.7905 3.70066 54.7905 4.77066C54.7905 5.84066 55.5405 6.64066 56.5605 6.64066ZM53.7305 4.76066C53.7305 3.12066 54.9205 1.93066 56.5705 1.93066C58.2205 1.93066 59.4105 3.11066 59.4105 4.76066C59.4105 6.41066 58.1905 7.59066 56.5705 7.59066C54.9505 7.59066 53.7305 6.42066 53.7305 4.76066Z" fill="#E9EFE8"/>
<path d="M65.1316 7.45055H64.0816V5.74055C64.0216 6.70055 63.3716 7.58055 62.2616 7.58055C61.0116 7.58055 60.4316 6.66055 60.4316 5.62055V2.06055H61.4816V5.32055C61.4816 6.16055 62.0116 6.59055 62.7116 6.59055C63.5116 6.59055 64.0816 6.00055 64.0816 5.22055V2.07055H65.1316V7.45055Z" fill="#E9EFE8"/>
<path d="M66.5703 2.07051H67.6103V4.21051C67.6303 2.84051 68.4103 2.02051 69.5803 2.02051V3.14051H69.2203C68.1303 3.14051 67.6203 3.88051 67.6203 4.75051V7.45051H66.5703V2.07051Z" fill="#E9EFE8"/>
<path d="M1.05 10.0703H0V17.4003H1.05V10.0703Z" fill="#E9EFE8"/>
<path d="M4.30047 16.6706C5.41047 16.6706 5.85047 15.8606 5.85047 15.1006V14.8106L4.25047 14.9806C3.61047 15.0506 3.29047 15.3506 3.29047 15.8406C3.29047 16.3306 3.73047 16.6806 4.30047 16.6806M2.24047 15.8306C2.24047 14.8306 2.98047 14.2406 4.02047 14.1406L5.85047 13.9506C5.84047 13.3106 5.38047 12.8106 4.57047 12.8106C3.83047 12.8106 3.47047 13.2806 3.38047 13.7106L2.45047 13.4406C2.69047 12.5006 3.46047 11.8906 4.57047 11.8906C6.14047 11.8906 6.87047 12.9406 6.87047 14.0106V17.4006H5.83047V15.7506C5.83047 16.8906 5.10047 17.5406 4.07047 17.5406C2.99047 17.5406 2.23047 16.8406 2.23047 15.8306" fill="#E9EFE8"/>
<path d="M13.3505 16.5803C14.3605 16.5803 15.0405 15.7603 15.0405 14.7203C15.0405 13.5303 14.2705 12.8403 13.3305 12.8403C12.3905 12.8403 11.6205 13.6003 11.6205 14.7203C11.6205 15.8403 12.3605 16.5803 13.3405 16.5803M10.5605 14.7203C10.5605 13.0703 11.6105 11.8803 12.9805 11.8803C14.0905 11.8803 14.8605 12.6303 15.0005 13.8703V10.0703H16.0505V17.4003H15.0005V15.4603C14.8605 16.6503 14.2505 17.5303 12.9805 17.5303C11.6305 17.5303 10.5605 16.3303 10.5605 14.7103" fill="#E9EFE8"/>
<path d="M19.8098 9.78027H20.8698L20.0598 11.4003H19.2598L19.7998 9.78027H19.8098ZM21.3598 14.2003C21.3498 13.4403 20.6998 12.7903 19.7998 12.7903C18.8998 12.7903 18.2998 13.3903 18.1498 14.2003H21.3598ZM17.0998 14.6803C17.0998 13.0103 18.2898 11.8903 19.8198 11.8903C21.4498 11.8903 22.3798 13.1303 22.3798 14.5603C22.3798 14.7703 22.3698 14.9703 22.3498 15.0903H18.1398C18.2798 16.0303 18.9298 16.6203 19.8198 16.6203C20.4898 16.6203 21.0498 16.3203 21.3598 15.8303L22.1298 16.3303C21.7098 17.0403 20.8798 17.5403 19.7998 17.5403C18.2098 17.5403 17.0898 16.3803 17.0898 14.6803" fill="#E9EFE8"/>
<path d="M23.5198 12.0206H24.5698V13.7406C24.5698 12.6406 25.2298 11.8906 26.2598 11.8906C27.1398 11.8906 27.9698 12.3806 28.0898 13.7406C28.1298 12.5706 28.8298 11.8906 29.7698 11.8906C30.9698 11.8906 31.5898 12.8006 31.5898 13.8506V17.4106H30.5398V14.1506C30.5398 13.3806 30.0598 12.8806 29.3298 12.8806C28.5998 12.8806 28.0898 13.3806 28.0898 14.2606V17.4006H27.0398V14.1306C27.0398 13.3706 26.4998 12.8706 25.7898 12.8706C25.0798 12.8706 24.5598 13.4506 24.5598 14.2506V17.3906H23.5098V12.0106L23.5198 12.0206Z" fill="#E9EFE8"/>
<path d="M35.4904 16.5799C36.5004 16.5799 37.2604 15.8299 37.2604 14.7099C37.2604 13.5899 36.5104 12.8399 35.4904 12.8399C34.4704 12.8399 33.7204 13.6399 33.7204 14.7099C33.7204 15.7799 34.4704 16.5799 35.4904 16.5799ZM32.6504 14.7099C32.6504 13.0699 33.8404 11.8799 35.4904 11.8799C37.1404 11.8799 38.3304 13.0599 38.3304 14.7099C38.3304 16.3599 37.1104 17.5399 35.4904 17.5399C33.8704 17.5399 32.6504 16.3699 32.6504 14.7099Z" fill="#E9EFE8"/>
<path d="M39.041 14.7099C39.041 13.0899 40.231 11.8799 41.841 11.8799C42.951 11.8799 43.901 12.4299 44.331 13.4799L43.431 13.9499C43.241 13.3699 42.651 12.8399 41.841 12.8399C40.841 12.8399 40.101 13.6099 40.101 14.6999C40.101 15.7899 40.861 16.5599 41.841 16.5599C42.571 16.5599 43.241 16.1699 43.511 15.3899L44.401 15.8099C43.981 16.9799 42.981 17.5299 41.841 17.5299C40.211 17.5299 39.041 16.3299 39.041 14.6999" fill="#E9EFE8"/>
<path d="M45.541 12.0207H46.581V14.1607C46.601 12.7907 47.381 11.9707 48.551 11.9707V13.0907H48.191C47.101 13.0907 46.591 13.8307 46.591 14.7007V17.4007H45.541V12.0207Z" fill="#E9EFE8"/>
<path d="M51.32 16.6706C52.43 16.6706 52.87 15.8606 52.87 15.1006V14.8106L51.27 14.9806C50.63 15.0506 50.31 15.3506 50.31 15.8406C50.31 16.3306 50.75 16.6806 51.32 16.6806M49.26 15.8306C49.26 14.8306 50 14.2406 51.04 14.1406L52.87 13.9506C52.86 13.3106 52.4 12.8106 51.59 12.8106C50.85 12.8106 50.49 13.2806 50.4 13.7106L49.47 13.4406C49.71 12.5006 50.48 11.8906 51.59 11.8906C53.16 11.8906 53.89 12.9406 53.89 14.0106V17.4006H52.85V15.7506C52.85 16.8906 52.12 17.5406 51.09 17.5406C50.01 17.5406 49.25 16.8406 49.25 15.8306" fill="#E9EFE8"/>
<path d="M55.8111 15.9405V12.9405H54.8711V12.0205H55.8311V10.8105H56.8511V12.0205H58.4511V12.9405H56.8511V15.8905C56.8511 16.3105 57.0711 16.4605 57.3911 16.4605H58.3511V17.3905H57.2611C56.4211 17.3905 55.8011 16.9505 55.8011 15.9305" fill="#E9EFE8"/>
<path d="M59.6001 12.0205H60.6501V17.4005H59.6001V12.0205ZM59.5801 9.98047H60.6701V11.2105H59.5801V9.98047Z" fill="#E9EFE8"/>
<path d="M66.0007 14.2006C65.9907 13.4406 65.3407 12.7906 64.4407 12.7906C63.5407 12.7906 62.9407 13.3906 62.7907 14.2006H66.0007ZM61.7307 14.6806C61.7307 13.0106 62.9207 11.8906 64.4507 11.8906C66.0807 11.8906 67.0107 13.1306 67.0107 14.5606C67.0107 14.7706 67.0007 14.9706 66.9807 15.0906H62.7707C62.9107 16.0306 63.5607 16.6206 64.4507 16.6206C65.1207 16.6206 65.6807 16.3206 65.9907 15.8306L66.7607 16.3306C66.3407 17.0406 65.5207 17.5406 64.4307 17.5406C62.8407 17.5406 61.7207 16.3806 61.7207 14.6806" fill="#E9EFE8"/>
<path d="M69.2902 15.9805H67.9902V17.3905H69.2902V15.9805Z" fill="#E9EFE8"/>
<path d="M29.7195 24.7105L28.2995 20.1905L26.8795 24.7105H29.7295H29.7195ZM27.2695 20.0205H29.3295L31.6595 27.3505H30.5395L30.0295 25.7305H26.5595L26.0495 27.3505H24.9395L27.2695 20.0205Z" fill="#E9EFE8"/>
<path d="M34.3508 24.8503C35.0308 24.8503 35.4708 24.4003 35.4708 23.7503C35.4708 23.1003 35.0308 22.6603 34.3508 22.6603C33.6708 22.6603 33.2208 23.1303 33.2208 23.7503C33.2208 24.4003 33.6708 24.8503 34.3508 24.8503ZM34.3808 28.7703C35.3308 28.7703 36.1308 28.5503 36.1308 27.8903C36.1308 27.4903 35.8108 27.2003 35.1608 27.2003H33.6608C33.1308 27.2003 32.7808 27.5003 32.7808 27.9103C32.7808 28.5703 33.5508 28.7703 34.3808 28.7703ZM31.8008 28.2303C31.8008 27.6503 32.2508 27.1403 33.2908 27.1403H33.4608C32.7108 27.0703 32.3508 26.7503 32.3508 26.3203C32.3508 25.9203 32.7108 25.5603 33.4608 25.5303C32.6708 25.2603 32.2008 24.6003 32.2008 23.7503C32.2008 22.5903 33.1108 21.8203 34.3508 21.8203C34.8208 21.8203 35.2408 21.9703 35.4408 22.0703L37.1108 21.8603V22.8703H35.1308C36.1108 22.9303 36.4408 23.5603 36.4408 24.0403C36.4408 25.0603 35.4708 25.6603 34.3508 25.6603C34.0608 25.6603 33.7808 25.6203 33.5508 25.5503C33.4508 25.6303 33.3708 25.7703 33.3708 25.9003C33.3708 26.1703 33.6408 26.2903 33.9208 26.2903H35.2908C36.4308 26.2903 37.1908 26.9103 37.1908 27.8503C37.1908 29.2903 35.6308 29.6703 34.3708 29.6703C32.8408 29.6703 31.8008 29.1403 31.8008 28.2303Z" fill="#E9EFE8"/>
<path d="M38.2602 21.9599H39.3102V27.3399H38.2602V21.9599ZM38.2402 19.9199H39.3302V21.1499H38.2402V19.9199Z" fill="#E9EFE8"/>
<path d="M40.8105 21.9602H41.8505V24.1002C41.8705 22.7302 42.6505 21.9102 43.8205 21.9102V23.0302H43.4605C42.3705 23.0302 41.8605 23.7702 41.8605 24.6402V27.3402H40.8105V21.9602Z" fill="#E9EFE8"/>
<path d="M48.5312 24.6501C48.5312 25.8401 49.3113 26.5201 50.2513 26.5201C51.1913 26.5201 51.9513 25.7701 51.9513 24.6501C51.9513 23.5301 51.2113 22.7801 50.2313 22.7801C49.2513 22.7801 48.5312 23.6101 48.5312 24.6501ZM47.5312 21.9601H48.5813V23.9101C48.7313 22.7201 49.4213 21.8301 50.6613 21.8301C52.0113 21.8301 53.0112 23.0401 53.0112 24.6601C53.0112 26.2801 52.0313 27.4901 50.6613 27.4901C49.5813 27.4901 48.7213 26.7401 48.5813 25.5001V29.5501H47.5312V21.9701V21.9601Z" fill="#E9EFE8"/>
<path d="M56.5605 26.5303C57.5705 26.5303 58.3305 25.7803 58.3305 24.6603C58.3305 23.5403 57.5805 22.7903 56.5605 22.7903C55.5405 22.7903 54.7905 23.5903 54.7905 24.6603C54.7905 25.7303 55.5405 26.5303 56.5605 26.5303ZM53.7305 24.6503C53.7305 23.0103 54.9205 21.8203 56.5705 21.8203C58.2205 21.8203 59.4105 23.0003 59.4105 24.6503C59.4105 26.3003 58.1905 27.4803 56.5705 27.4803C54.9505 27.4803 53.7305 26.3103 53.7305 24.6503Z" fill="#E9EFE8"/>
<path d="M65.1297 27.3402H64.0797V25.6302C64.0197 26.5902 63.3697 27.4702 62.2597 27.4702C61.0097 27.4702 60.4297 26.5502 60.4297 25.5102V21.9502H61.4797V25.2102C61.4797 26.0502 62.0097 26.4802 62.7097 26.4802C63.5097 26.4802 64.0797 25.8902 64.0797 25.1102V21.9602H65.1297V27.3402Z" fill="#E9EFE8"/>
<path d="M66.5703 21.9602H67.6103V24.1002C67.6303 22.7302 68.4103 21.9102 69.5803 21.9102V23.0302H69.2203C68.1303 23.0302 67.6203 23.7702 67.6203 24.6402V27.3402H66.5703V21.9602Z" fill="#E9EFE8"/>
<path d="M31.9992 29.96H30.9492V37.29H31.9992V29.96Z" fill="#E9EFE8"/>
<path d="M33.8499 31.4797V31.3797H33.3499V29.9697H34.6499V31.4897C34.6499 32.2197 34.2599 32.8897 33.4099 33.1197L33.1699 32.4597C33.6499 32.3197 33.8499 31.9997 33.8499 31.4897" fill="#E9EFE8"/>
<path d="M37.7395 29.6699H38.7995L37.9895 31.2899H37.1895L37.7395 29.6699ZM39.2995 34.0999C39.2895 33.3399 38.6395 32.6899 37.7395 32.6899C36.8395 32.6899 36.2395 33.2899 36.0895 34.0999H39.2995ZM35.0295 34.5699C35.0295 32.8999 36.2195 31.7799 37.7495 31.7799C39.3795 31.7799 40.3095 33.0199 40.3095 34.4499C40.3095 34.6599 40.2995 34.8599 40.2795 34.9799H36.0695C36.2095 35.9199 36.8595 36.5099 37.7495 36.5099C38.4195 36.5099 38.9795 36.2099 39.2895 35.7199L40.0595 36.2199C39.6395 36.9299 38.8195 37.4299 37.7295 37.4299C36.1395 37.4299 35.0195 36.2699 35.0195 34.5699" fill="#E9EFE8"/>
<path d="M43.2998 34.7995C43.9798 34.7995 44.4198 34.3495 44.4198 33.6995C44.4198 33.0495 43.9798 32.6095 43.2998 32.6095C42.6198 32.6095 42.1698 33.0795 42.1698 33.6995C42.1698 34.3495 42.6198 34.7995 43.2998 34.7995ZM43.3298 38.7095C44.2798 38.7095 45.0798 38.4895 45.0798 37.8295C45.0798 37.4295 44.7598 37.1395 44.1098 37.1395H42.6098C42.0798 37.1395 41.7298 37.4395 41.7298 37.8495C41.7298 38.5095 42.4998 38.7095 43.3298 38.7095ZM40.7598 38.1795C40.7598 37.5995 41.2098 37.0895 42.2498 37.0895H42.4198C41.6698 37.0195 41.3098 36.6995 41.3098 36.2695C41.3098 35.8695 41.6698 35.5095 42.4198 35.4795C41.6298 35.2095 41.1598 34.5495 41.1598 33.6995C41.1598 32.5395 42.0698 31.7695 43.3098 31.7695C43.7798 31.7695 44.1998 31.9195 44.3998 32.0195L46.0698 31.8095V32.8195H44.0898C45.0698 32.8795 45.3998 33.5095 45.3998 33.9895C45.3998 35.0095 44.4298 35.6095 43.3098 35.6095C43.0198 35.6095 42.7398 35.5695 42.5098 35.4995C42.4098 35.5795 42.3298 35.7195 42.3298 35.8495C42.3298 36.1195 42.5998 36.2395 42.8798 36.2395H44.2498C45.3898 36.2395 46.1498 36.8595 46.1498 37.7995C46.1498 39.2395 44.5898 39.6195 43.3298 39.6195C41.7998 39.6195 40.7598 39.0895 40.7598 38.1795Z" fill="#E9EFE8"/>
<path d="M48.9001 36.5603C50.0101 36.5603 50.4501 35.7503 50.4501 34.9903V34.7003L48.8501 34.8703C48.2101 34.9403 47.8901 35.2403 47.8901 35.7303C47.8901 36.2203 48.3301 36.5703 48.9001 36.5703M46.8401 35.7203C46.8401 34.7203 47.5801 34.1303 48.6201 34.0303L50.4501 33.8403C50.4401 33.2003 49.9801 32.7003 49.1701 32.7003C48.4301 32.7003 48.0701 33.1703 47.9801 33.6003L47.0501 33.3303C47.2901 32.3903 48.0601 31.7803 49.1701 31.7803C50.7401 31.7803 51.4701 32.8303 51.4701 33.9003V37.2903H50.4301V35.6403C50.4301 36.7803 49.7001 37.4303 48.6701 37.4303C47.5901 37.4303 46.8301 36.7303 46.8301 35.7203" fill="#E9EFE8"/>
<path d="M53.9094 29.96H52.8594V37.29H53.9094V29.96Z" fill="#E9EFE8"/>
<path d="M55.3208 31.9101H56.3708V37.2901H55.3208V31.9101ZM55.3008 29.8701H56.3908V31.1001H55.3008V29.8701Z" fill="#E9EFE8"/>
<path d="M58.3111 35.8302V32.8302H57.3711V31.9102H58.3311V30.7002H59.3511V31.9102H60.9511V32.8302H59.3511V35.7802C59.3511 36.2002 59.5711 36.3502 59.8911 36.3502H60.8511V37.2802H59.7611C58.9211 37.2802 58.3011 36.8402 58.3011 35.8202" fill="#E9EFE8"/>
<path d="M64.4407 29.6699H65.5007L64.6907 31.2899H63.8907L64.4307 29.6699H64.4407ZM66.0007 34.0999C65.9907 33.3399 65.3407 32.6899 64.4407 32.6899C63.5407 32.6899 62.9407 33.2899 62.7907 34.0999H66.0007ZM61.7307 34.5699C61.7307 32.8999 62.9207 31.7799 64.4507 31.7799C66.0807 31.7799 67.0107 33.0199 67.0107 34.4499C67.0107 34.6599 67.0007 34.8599 66.9807 34.9799H62.7707C62.9107 35.9199 63.5607 36.5099 64.4507 36.5099C65.1207 36.5099 65.6807 36.2099 65.9907 35.7199L66.7607 36.2199C66.3407 36.9299 65.5107 37.4299 64.4307 37.4299C62.8407 37.4299 61.7207 36.2699 61.7207 34.5699" fill="#E9EFE8"/>
<path d="M69.2902 35.8799H67.9902V37.2899H69.2902V35.8799Z" fill="#E9EFE8"/>
</svg>
