<svg width="171" height="172" viewBox="0 0 171 172" fill="none" xmlns="http://www.w3.org/2000/svg">
<g filter="url(#filter0_d_499_8126)">
<circle cx="85.6665" cy="82" r="72" fill="#D7DB31"/>
<circle cx="85.5" cy="81.8633" r="79" stroke="#D7DB31" stroke-width="5"/>
<path d="M57.0014 64.3591C57.0014 63.7808 57.4704 63.3116 58.0487 63.3116H93.5619C94.1402 63.3116 94.6093 63.7807 94.6093 64.3591C94.6093 64.9374 94.1402 65.4065 93.5619 65.4065H58.0487C57.4705 65.4065 57.0014 64.9374 57.0014 64.3591ZM128.363 102.612C129.479 104.553 128.816 107.032 126.879 108.157L126.256 108.517C125.642 108.873 124.946 109.059 124.239 109.059C123.879 109.059 123.523 109.01 123.179 108.917C122.281 108.678 121.493 108.141 120.951 107.392L113.049 107.506V121.947C113.049 122.525 112.58 122.995 112.002 122.995H102.685C103.089 124.333 102.523 125.773 101.314 126.477L97.6383 128.6V128.596C97.1854 128.863 96.6678 129 96.1421 129C95.8752 129 95.6123 128.964 95.3575 128.895C94.5852 128.693 93.926 128.187 93.5297 127.496L90.9295 122.994H49.0514C48.4691 122.994 48 122.525 48 121.947V42.0475C48 41.4692 48.4691 41 49.0514 41H99.0249C99.0613 41 99.0936 41 99.13 41.004C99.1543 41.0081 99.1826 41.0121 99.2069 41.0162L99.2311 41.0202C99.2635 41.0283 99.2918 41.0324 99.3201 41.0445L99.3282 41.0485C99.3565 41.0566 99.3888 41.0687 99.4171 41.0809L99.4252 41.0849C99.4535 41.0971 99.4778 41.1092 99.5061 41.1213L99.5182 41.1294C99.5425 41.1415 99.5627 41.1577 99.587 41.1699L99.6072 41.182C99.6274 41.1941 99.6476 41.2103 99.6679 41.2265L99.6881 41.2426C99.7123 41.2629 99.7326 41.279 99.7528 41.2993L112.754 54.3017C112.774 54.3219 112.795 54.3421 112.811 54.3664L112.827 54.3866C112.843 54.4068 112.859 54.427 112.872 54.4473L112.884 54.4675C112.9 54.4917 112.912 54.512 112.924 54.5362L112.932 54.5484C112.944 54.5726 112.956 54.6009 112.969 54.6292L112.973 54.6373C112.985 54.6656 112.997 54.694 113.005 54.7263L113.009 54.7344C113.017 54.7627 113.025 54.795 113.033 54.8234L113.037 54.8476C113.041 54.8719 113.045 54.9002 113.049 54.9245C113.054 54.9609 113.054 54.9932 113.054 55.0296L113.049 76.0831L128.363 102.612ZM100.072 53.9777H109.471L100.072 44.5789V53.9777ZM89.7203 120.9L87.0757 116.318L85.5147 117.22H85.5107C82.3686 119.031 78.3531 117.952 76.5371 114.813L73.5325 109.613H73.5366C71.733 106.466 72.8046 102.459 75.9386 100.638L92.4935 91.0784L102.166 74.8571V74.8611C101.329 72.9645 102.053 70.7402 103.848 69.7009L104.471 69.341C106.412 68.2248 108.891 68.888 110.015 70.8251L110.953 72.4509V56.0726H99.024C98.4457 56.0726 97.9766 55.6035 97.9766 55.0251V43.0951H50.0977V120.899L89.7203 120.9ZM119.721 105.313L103.352 76.9603L94.4685 91.859L102.378 105.56L112.002 105.423L119.721 105.313ZM100.347 106.232L92.8698 93.2818L76.9852 102.45C74.8541 103.692 74.1222 106.421 75.3475 108.565L78.3521 113.766C79.5895 115.901 82.3231 116.637 84.4623 115.403L100.347 106.232ZM100.598 123.411L94.1436 112.229L88.8866 115.262L95.3405 126.444L95.3446 126.448C95.5953 126.881 96.1533 127.031 96.5901 126.784L100.266 124.661C100.699 124.406 100.848 123.852 100.598 123.415L100.598 123.411ZM110.954 107.53L102.066 107.655L95.9597 111.186L101.568 120.899H110.954L110.954 107.53ZM126.55 103.656L108.199 71.8731V71.8772C107.941 71.4242 107.508 71.0966 107.007 70.9632C106.837 70.9187 106.663 70.8944 106.489 70.8944C106.149 70.8944 105.814 70.9834 105.518 71.1573L104.896 71.5172C103.958 72.0591 103.634 73.2602 104.176 74.1985L122.527 105.981C123.069 106.915 124.266 107.239 125.208 106.701L125.831 106.341C126.765 105.795 127.084 104.598 126.55 103.66V103.656ZM115.903 76.5966C116.158 76.7099 116.445 76.718 116.704 76.6169C116.967 76.5198 117.173 76.3216 117.286 76.0669L119.498 71.1047H119.502C119.737 70.579 119.498 69.9602 118.973 69.7216C118.443 69.4871 117.824 69.7257 117.59 70.2514L115.374 75.2136C115.139 75.7393 115.378 76.3621 115.903 76.5966ZM118.423 81.7529C118.855 82.1371 119.518 82.0926 119.898 81.6599L123.32 77.7776H123.324C123.506 77.5673 123.603 77.2963 123.582 77.0173C123.566 76.7382 123.441 76.4794 123.231 76.2974C123.024 76.1114 122.749 76.0184 122.47 76.0386C122.191 76.0548 121.933 76.1842 121.751 76.3904L118.329 80.2728C117.945 80.7095 117.986 81.3687 118.423 81.7529ZM120.74 86.0518C120.877 86.2904 121.108 86.4683 121.374 86.5371C121.645 86.6099 121.928 86.5735 122.171 86.4319L126.567 83.8962C127.068 83.6051 127.242 82.9661 126.951 82.4646C126.664 81.9631 126.021 81.7892 125.519 82.0804L121.124 84.6202C120.622 84.9073 120.448 85.5503 120.74 86.0518ZM133.056 94.597L127.654 94.0349L127.658 94.0308C127.383 94.0025 127.104 94.0834 126.89 94.2573C126.671 94.4352 126.534 94.686 126.505 94.965C126.477 95.24 126.558 95.5191 126.736 95.7334C126.91 95.9518 127.165 96.0852 127.44 96.1135L132.842 96.6757L132.846 96.6797C132.883 96.6838 132.919 96.6838 132.955 96.6838C133.513 96.6838 133.97 96.247 133.999 95.6889C134.027 95.1349 133.614 94.6536 133.06 94.593L133.056 94.597ZM123.302 90.2051C123.399 90.6945 123.828 91.0463 124.325 91.0463C124.398 91.0463 124.467 91.0423 124.536 91.0261L129.611 90.003H129.607C130.177 89.8897 130.541 89.3357 130.428 88.7695C130.314 88.2033 129.76 87.8353 129.194 87.9485L124.119 88.9717C123.553 89.089 123.185 89.639 123.302 90.2051ZM58.0436 72.1684L93.5611 72.1643C94.1393 72.1643 94.6044 71.6952 94.6044 71.1169C94.6044 70.5385 94.1394 70.0694 93.5611 70.0694H58.0479C57.4696 70.0694 57.0046 70.5385 57.0046 71.1169C57.0046 71.6952 57.4696 72.1643 58.0479 72.1643L58.0436 72.1684ZM84.9472 76.8312L58.0479 76.8272C57.4696 76.8272 57.0005 77.2963 57.0005 77.8746C57.0005 78.453 57.4696 78.9221 58.0479 78.9221H84.955C85.5332 78.9221 86.0023 78.453 86.0023 77.8746C86.0023 77.2963 85.5333 76.8272 84.955 76.8272L84.9472 76.8312ZM84.9472 83.5889H58.0436L58.0476 83.5808C57.4694 83.5808 57.0002 84.0499 57.0002 84.6283C57.0002 85.2066 57.4693 85.6757 58.0476 85.6757H84.9547C85.2297 85.6798 85.5006 85.5666 85.6947 85.3724C85.8929 85.1743 86.002 84.9074 86.002 84.6283C86.002 84.3493 85.8929 84.0824 85.6947 83.8883C85.5006 83.6901 85.2297 83.5809 84.9547 83.5809L84.9472 83.5889ZM69.6898 90.3385H58.0479C57.7689 90.3385 57.502 90.4477 57.3038 90.6459C57.1097 90.84 56.9965 91.1069 56.9965 91.3859C56.9965 91.665 57.1097 91.9319 57.3038 92.126C57.502 92.3242 57.7689 92.4334 58.0479 92.4334H69.6898C69.9688 92.4334 70.2357 92.3242 70.4339 92.126C70.628 91.9319 70.7412 91.665 70.7412 91.3859C70.7412 91.1069 70.628 90.84 70.4339 90.6459C70.2357 90.4477 69.9688 90.3385 69.6898 90.3385ZM69.6898 97.0962H58.0479C57.4696 97.0962 57.0005 97.5653 57.0005 98.1437C57.0005 98.722 57.4696 99.1911 58.0479 99.1911H69.6898C70.2681 99.1911 70.7372 98.722 70.7372 98.1437C70.7372 97.5653 70.2681 97.0962 69.6898 97.0962ZM56.9997 57.605V50.8473C56.9997 50.269 57.4688 49.7998 58.0471 49.7998H64.8043C65.3826 49.7998 65.8517 50.2689 65.8517 50.8473V57.605C65.8517 58.1833 65.3826 58.6524 64.8043 58.6524H58.0471C57.4689 58.6524 56.9997 58.1833 56.9997 57.605ZM59.0944 56.5575H63.757V51.8947H59.0944V56.5575ZM70.0125 51.8947H93.5594C94.1377 51.8947 94.6068 51.4255 94.6068 50.8472C94.6068 50.2689 94.1377 49.7997 93.5594 49.7997H70.0125C69.7335 49.7997 69.4666 49.9089 69.2725 50.103C69.0744 50.3012 68.9611 50.5681 68.9611 50.8472C68.9611 51.1262 69.0744 51.3931 69.2725 51.5872C69.4666 51.7854 69.7335 51.8947 70.0125 51.8947ZM70.0125 58.6524H93.5594C94.1377 58.6483 94.6028 58.1792 94.6028 57.6049C94.6028 57.0266 94.1377 56.5574 93.5594 56.5534H70.0125V56.5574C69.7335 56.5534 69.4666 56.6666 69.2725 56.8607C69.0744 57.0589 68.9611 57.3258 68.9611 57.6049C68.9611 57.8799 69.0744 58.1468 69.2725 58.3449C69.4666 58.5431 69.7335 58.6524 70.0125 58.6524Z" fill="#012E31"/>
</g>
<defs>
<filter id="filter0_d_499_8126" x="0" y="0.363281" width="171" height="171" filterUnits="userSpaceOnUse" color-interpolation-filters="sRGB">
<feFlood flood-opacity="0" result="BackgroundImageFix"/>
<feColorMatrix in="SourceAlpha" type="matrix" values="0 0 0 0 0 0 0 0 0 0 0 0 0 0 0 0 0 0 127 0" result="hardAlpha"/>
<feOffset dy="4"/>
<feGaussianBlur stdDeviation="2"/>
<feComposite in2="hardAlpha" operator="out"/>
<feColorMatrix type="matrix" values="0 0 0 0 0 0 0 0 0 0 0 0 0 0 0 0 0 0 0.25 0"/>
<feBlend mode="normal" in2="BackgroundImageFix" result="effect1_dropShadow_499_8126"/>
<feBlend mode="normal" in="SourceGraphic" in2="effect1_dropShadow_499_8126" result="shape"/>
</filter>
</defs>
</svg>
